<svg fill="none" viewBox="0 0 20 20" xmlns="http://www.w3.org/2000/svg"><path d="m6 1a1 1 0 0 0 -2 0zm-2 3a1 1 0 0 0 2 0zm7-3a1 1 0 1 0 -2 0zm-2 3a1 1 0 0 0 2 0zm7-3a1 1 0 1 0 -2 0zm-2 3a1 1 0 1 0 2 0zm-13 2a1 1 0 0 0 0 2zm18 2a1 1 0 1 0 0-2zm-14 3v-1h-1v1zm0 .01h-1v1h1zm.01 0v1h1v-1zm0-.01h1v-1h-1zm4.99 0v-1h-1v1zm0 .01h-1v1h1zm.01 0v1h1v-1zm0-.01h1v-1h-1zm-.01 4v-1h-1v1zm0 .01h-1v1h1zm.01 0v1h1v-1zm0-.01h1v-1h-1zm4.99 0v-1h-1v1zm0 .01h-1v1h1zm.01 0v1h1v-1zm0-.01h1v-1h-1zm-.01-4v-1h-1v1zm0 .01h-1v1h1zm.01 0v1h1v-1zm0-.01h1v-1h-1zm-10.01 4v-1h-1v1zm0 .01h-1v1h1zm.01 0v1h1v-1zm0-.01h1v-1h-1zm-3.01-11h16v-2h-16zm16 0h2a2 2 0 0 0 -2-2zm0 0v14h2v-14zm0 14v2a2 2 0 0 0 2-2zm0 0h-16v2h16zm-16 0h-2a2 2 0 0 0 2 2zm0 0v-14h-2v14zm0-14v-2a2 2 0 0 0 -2 2zm2-3v3h2v-3zm5 0v3h2v-3zm5 0v3h2v-3zm-13 7h18v-2h-18zm3 3v.01h2v-.01zm1 1.01h.01v-2h-.01zm1.01-1v-.01h-2v.01zm-1-1.01h-.01v2h.01zm3.99 1v.01h2v-.01zm1 1.01h.01v-2h-.01zm1.01-1v-.01h-2v.01zm-1-1.01h-.01v2h.01zm-1.01 5v.01h2v-.01zm1 1.01h.01v-2h-.01zm1.01-1v-.01h-2v.01zm-1-1.01h-.01v2h.01zm3.99 1v.01h2v-.01zm1 1.01h.01v-2h-.01zm1.01-1v-.01h-2v.01zm-1-1.01h-.01v2h.01zm-1.01-3v.01h2v-.01zm1 1.01h.01v-2h-.01zm1.01-1v-.01h-2v.01zm-1-1.01h-.01v2h.01zm-11.01 5v.01h2v-.01zm1 1.01h.01v-2h-.01zm1.01-1v-.01h-2v.01zm-1-1.01h-.01v2h.01z" fill="#000"/></svg>